# AST/ASF file generated using VICON BodyLanguage
# -----------------------------------------------
:version 1.10
:name VICON
:units
  mass 1.0
  length 0.45
  angle deg
:documentation
   .ast/.asf automatically generated from VICON data using
   VICON BodyBuilder and BodyLanguage model FoxedUp or BRILLIANT.MOD
:root
   order TX TY TZ RX RY RZ
   axis XYZ
   position 0 0 0  
   orientation 0 0 0 
:bonedata
  begin
     id 1 
     name lhipjoint
     direction 0.627457 -0.725269 0.283342 
     length 2.53237 
     axis 0 0 0  XYZ
  end
  begin
     id 2 
     name lfemur
     direction 0.34202 -0.939693 0  
     length 7.32496  
     axis 0 0 20  XYZ
    dof rx ry rz
    limits (-160.0 20.0)
           (-70.0 70.0)
           (-60.0 70.0)
  end
  begin
     id 3 
     name ltibia
     direction 0.34202 -0.939693 0   
     length 7.69674   
     axis 0 0 20   XYZ
    dof rx
    limits (-10.0 170.0)
  end
  begin
     id 4 
     name lfoot
     direction 0.127289 -0.349722 0.928166   
     length 1.8612   
     axis -90 7.62852e-016 20   XYZ
    dof rx rz
    limits (-45.0 90.0)
           (-70.0 20.0)
  end
  begin
     id 5 
     name ltoes
     direction 1.53561e-011 -4.21864e-011 1   
     length 0.925608   
     axis -90 7.62852e-016 20   XYZ
    dof rx
    limits (-90.0 20.0)
  end
  begin
     id 6 
     name rhipjoint
     direction -0.609094 -0.738725 0.288599   
     length 2.48624  
     axis 0 0 0  XYZ 
  end
  begin
     id 7 
     name rfemur
     direction -0.34202 -0.939693 0   
     length 7.44259   
     axis 0 0 -20   XYZ
    dof rx ry rz
    limits (-160.0 20.0)
           (-70.0 70.0)
           (-70.0 60.0)
  end
  begin
     id 8 
     name rtibia
     direction -0.34202 -0.939693 0   
     length 7.7781   
     axis 0 0 -20   XYZ
    dof rx
    limits (-10.0 170.0)
 end
 begin
     id 9 
     name rfoot
     direction -0.107015 -0.294021 0.949789   
     length 2.14741  
     axis -90 -7.62852e-016 -20   XYZ
    dof rx rz
    limits (-45.0 90.0)
           (-20.0 70.0)
  end
  begin
     id 10 
     name rtoes
     direction -1.53497e-011 -4.21924e-011 1   
     length 1.0706   
     axis -90 -7.62852e-016 -20   XYZ
    dof rx
    limits (-90.0 20.0)
  end
  begin
     id 11 
     name lowerback
     direction -0.0142066 0.998112 -0.0597545   
     length 1.86627   
     axis 0 0 0   XYZ
    dof rx ry rz
    limits (-20.0 45.0)
           (-30.0 30.0)
           (-30.0 30.0)
  end
  begin
     id 12 
     name upperback
     direction 0.00547294 0.999744 0.0219437   
     length 1.86272   
     axis 0 0 0   XYZ
    dof rx ry rz
    limits (-20.0 45.0)
           (-30.0 30.0)
           (-30.0 30.0)
  end
  begin
     id 13 
     name thorax
     direction 0.0116162 0.998704 0.0495538   
     length 1.8703   
     axis 0 0 0   XYZ
    dof rx ry rz
    limits (-20.0 45.0)
           (-30.0 30.0)
           (-30.0 30.0)
  end
  begin
     id 14 
     name lowerneck
     direction -0.0106574 0.998739 0.0490586   
     length 1.8074   
     axis 0 0 0   XYZ
    dof rx ry rz
    limits (-20.0 45.0)
           (-30.0 30.0)
           (-30.0 30.0)
  end
  begin
     id 15 
     name upperneck
     direction 0.030527 0.976587 -0.212944   
     length 1.80681   
     axis 0 0 0   XYZ
    dof rx ry rz
    limits (-20.0 45.0)
           (-30.0 30.0)
           (-30.0 30.0)
  end
  begin
     id 16
     name head
     direction 0.00869225 0.997035 -0.0764531  
     length 1.8313  
     axis 0 0 0   XYZ
    dof rx ry rz
    limits (-20.0 45.0)
           (-30.0 30.0)
           (-30.0 30.0)
  end
  begin
     id 17 
     name lclavicle
     direction 0.915958 0.399447 0.0382386  
     length 3.78965  
     axis 0 0 0   XYZ
    dof ry rz
    limits (-20.0 10.0)
           (0.0 20.0)
  end
  begin
     id 18 
     name lhumerus
     direction 1 -4.48967e-011 3.19303e-027   
     length 4.78095   
     axis -180 -30 -90   XYZ
    dof rx ry rz
    limits (-60.0 90.0)
           (-90.0 90.0)
           (-90.0 90.0)
  end
  begin
     id 19
     name lradius
     direction 1 -4.48967e-011 -3.77974e-027   
     length 3.58615   
     axis -180 -30 -90   XYZ
    dof rx
    limits (-10.0 170.0)
  end
  begin
     id 20
     name lwrist
     direction 1 -4.48927e-011 1.2807e-027   
     length 1.79307   
     axis 1.91374e-015 90 90   XYZ
    dof ry
    limits (-180.0 0.0)
 end
  begin
     id 21 
     name lhand
     direction 1 -4.49036e-011 2.5614e-027   
     length 0.659812   
     axis -1.63439e-015 90 90   XYZ
    dof rx rz
    limits (-90.0 90.0)
           (-45.0 45.0)
  end
  begin
     id 22 
     name lfingers
     direction 1 -4.49052e-011 5.1228e-027   
     length 0.531957   
     axis -3.26879e-015 90 90   XYZ
    dof rx
    limits (0.0 90.0)
  end
  begin
     id 23
     name lthumb
     direction 0.707107 -6.35012e-011 0.707107   
     length 0.763787   
     axis -90 45 2.85299e-015   XYZ
    dof rx rz
    limits (-45.0 45.0)
           (-45.0 45.0)
  end
  begin
     id 24 
     name rclavicle
     direction -0.895351 0.435135 0.0948887   
     length 3.70497  
     axis 0 0 0   XYZ 
    dof ry rz
    limits (-10.0 20.0)
           (-20.0 0.0)
  end
  begin
     id 25 
     name rhumerus
     direction -1 -4.48971e-011 2.38946e-027  
     length 4.48913   
     axis -180 30 90   XYZ
    dof rx ry rz
    limits (-90.0 60.0)
           (-90.0 90.0)
           (-90.0 90.0)
  end
  begin
     id 26 
     name rradius
     direction -1 -4.4895e-011 4.38668e-027   
     length 3.7051   
     axis -180 30 90   XYZ
    dof rx
    limits (-10.0 170.0)
  end
  begin
     id 27 
     name rwrist
     direction -1 -4.49007e-011 1.2807e-027   
     length 1.85255   
     axis 1.91374e-015 -90 -90   XYZ
    dof ry
    limits (-180.0 0.0)
  end
  begin
     id 28
     name rhand
     direction -1 -4.48851e-011 2.5614e-027   
     length 0.449136   
     axis -1.63439e-015 -90 -90   XYZ
    dof rx rz
    limits (-90.0 90.0)
           (-45.0 45.0)
  end
  begin
     id 29
     name rfingers
     direction -1 -4.49128e-011 5.1228e-027   
     length 0.362105   
     axis -3.26879e-015 -90 -90   XYZ
    dof rx
    limits (0.0 90.0)
  end
  begin
     id 30
     name rthumb
     direction -0.707107 -6.34851e-011 0.707107   
     length 0.519912   
     axis -90 -45 -2.85299e-015   XYZ
    dof rx rz
    limits (-45.0 45.0)
           (-45.0 45.0)
  end
:hierarchy
  begin
    root lhipjoint rhipjoint lowerback
    lhipjoint lfemur
    lfemur ltibia
    ltibia lfoot
    lfoot ltoes
    rhipjoint rfemur
    rfemur rtibia
    rtibia rfoot
    rfoot rtoes
    lowerback upperback
    upperback thorax
    thorax lowerneck lclavicle rclavicle
    lowerneck upperneck
    upperneck head
    lclavicle lhumerus
    lhumerus lradius
    lradius lwrist
    lwrist lhand lthumb
    lhand lfingers
    rclavicle rhumerus
    rhumerus rradius
    rradius rwrist
    rwrist rhand rthumb
    rhand rfingers
  end

#!OML:ASF I:\Actors\actors\Patient Classification 2\Patient 1\Session 1\actor1.ASF
:FULLY-SPECIFIED
:DEGREES
1
root -0.611913 18.6859 5.4944 1.43895 -4.96803 -1.64931
lowerback 0.890402 1.5695 0.320727
upperback -2.01089 2.09762 -0.156318
thorax -2.5433 1.03891 -0.404348
lowerneck -11.3006 -0.832477 0.202838
upperneck 25.5694 -1.65074 1.58132
head 9.99033 -0.568074 0.324092
rclavicle -1.96051e-014 -1.39149e-015
rhumerus -46.9839 -1.36842 -89.4409
rradius 41.0108
rwrist 13.6333
rhand -10.4251 -32.6231
rfingers 7.12502
rthumb 15.5743 -62.016
lclavicle -1.96051e-014 -1.39149e-015
lhumerus -42.0768 -4.96346 93.0765
lradius 39.5276
lwrist 1.28933
lhand -4.64111 -19.8375
lfingers 7.12502
lthumb 21.1382 9.03018
rfemur 0 0 0
rtibia 0
rfoot 0 0
rtoes 0
lfemur -3.53195 -5.65701 -13.2891
ltibia 21.2374
lfoot -24.5935 17.646
ltoes -54.2199
2
root -0.611931 18.6859 5.4945 1.42078 -4.9806 -1.66304
lowerback 0.901932 1.57151 0.332417
upperback -2.01798 2.1008 -0.148208
thorax -2.55694 1.04028 -0.403161
lowerneck -11.2724 -0.844026 0.189039
upperneck 25.552 -1.6683 1.59933
head 9.97905 -0.575833 0.330779
rclavicle 1.35422e-015 6.36111e-015
rhumerus -46.9788 -1.46984 -89.3746
rradius 41.0194
rwrist 13.9599
rhand -10.0526 -32.7178
rfingers 7.12502
rthumb 15.933 -62.0824
lclavicle 1.35422e-015 6.36111e-015
lhumerus -42.0925 -4.9268 93.0733
lradius 39.5368
lwrist 1.26012
lhand -4.62843 -19.7836
lfingers 7.12502
lthumb 21.1504 9.08272
rfemur 0 0 0
rtibia 0
rfoot 0 0
rtoes 0
lfemur -3.50997 -5.6628 -13.2792
ltibia 21.2479
lfoot -24.6152 17.6551
ltoes -54.2546
3
root -0.611931 18.6857 5.49514 1.41912 -4.98776 -1.66421
lowerback 0.886981 1.56789 0.331113
upperback -2.028 2.096 -0.143781
thorax -2.5591 1.03794 -0.397479
lowerneck -11.2622 -0.845688 0.210452
upperneck 25.5441 -1.66515 1.56093
head 9.97363 -0.576856 0.314064
rclavicle 2.11333e-014 -1.78906e-015
rhumerus -47.0069 -1.44554 -89.3547
rradius 41.0883
rwrist 14.149
rhand -9.55089 -33.0586
rfingers 7.12502
rthumb 16.4161 -62.3839
lclavicle 2.11333e-014 -1.78906e-015
lhumerus -42.1037 -4.90415 93.0778
lradius 39.5371
lwrist 1.24891
lhand -4.65057 -19.7639
lfingers 7.12502
lthumb 21.1291 9.10478
rfemur 0 0 0
rtibia 0
rfoot 0 0
rtoes 0
lfemur -3.50377 -5.63417 -13.2763
ltibia 21.2495
lfoot -24.6064 17.6401
ltoes -54.2818
4
root -0.61217 18.6855 5.49482 1.42568 -4.98203 -1.65343
lowerback 0.87842 1.56594 0.311977
upperback -2.03511 2.09297 -0.142712
thorax -2.56233 1.03681 -0.385474
lowerneck -11.2675 -0.851919 0.229963
upperneck 25.529 -1.66877 1.52561
head 9.96874 -0.580778 0.297885
rclavicle -6.37353e-015 -5.76476e-015
rhumerus -47.0291 -1.41067 -89.3536
rradius 41.1831
rwrist 14.3055
rhand -9.10658 -33.3881
rfingers 7.12502
rthumb 16.8438 -62.6776
lclavicle -6.37353e-015 -5.76476e-015
lhumerus -42.1135 -4.93227 93.108
lradius 39.5459
lwrist 1.33561
lhand -5.15877 -20.4071
lfingers 7.12502
lthumb 20.6409 8.51537
rfemur 0 0 0
rtibia 0
rfoot 0 0
rtoes 0
lfemur -3.51779 -5.65032 -13.2868
ltibia 21.2508
lfoot -24.6197 17.6421
ltoes -54.2649
5
root -0.612481 18.6856 5.49356 1.43424 -4.96816 -1.64706
lowerback 0.882158 1.56094 0.293414
upperback -2.0421 2.086 -0.139752
thorax -2.57246 1.03369 -0.37211
lowerneck -11.2588 -0.851075 0.247639
upperneck 25.5071 -1.66585 1.50621
head 9.9588 -0.580175 0.288434
rclavicle -6.57232e-015 -1.19271e-015
rhumerus -47.0251 -1.41602 -89.3497
rradius 41.1897
rwrist 14.3123
rhand -9.09721 -33.3414
rfingers 7.12502
rthumb 16.8529 -62.63
lclavicle -6.57232e-015 -1.19271e-015
lhumerus -42.1201 -4.96411 93.1349
lradius 39.5655
lwrist 1.43714
lhand -5.62162 -21.056
lfingers 7.12502
lthumb 20.1961 7.91418
rfemur 0 0 0
rtibia 0
rfoot 0 0
rtoes 0
lfemur -3.53708 -5.67665 -13.291
ltibia 21.2514
lfoot -24.6478 17.639
ltoes -54.2364
6
root -0.612308 18.6855 5.49324 1.43053 -4.9745 -1.63601
lowerback 0.876065 1.55828 0.285022
upperback -2.04654 2.08218 -0.142264
thorax -2.57383 1.03192 -0.369776
lowerneck -11.2149 -0.83309 0.282815
upperneck 25.4745 -1.63833 1.47309
head 9.93773 -0.568362 0.274251
rclavicle -7.88927e-015 -2.78299e-015
rhumerus -47.0307 -1.41758 -89.3507
rradius 41.1541
rwrist 14.2366
rhand -9.30054 -33.1221
rfingers 7.12502
rthumb 16.6571 -62.4274
lclavicle -7.88927e-015 -2.78299e-015
lhumerus -42.1308 -4.94799 93.1215
lradius 39.5937
lwrist 1.37835
lhand -5.09582 -20.404
lfingers 7.12502
lthumb 20.7013 8.51194
rfemur 0 0 0
rtibia 0
rfoot 0 0
rtoes 0
lfemur -3.52712 -5.66815 -13.3036
ltibia 21.2469
lfoot -24.6401 17.6404
ltoes -54.2373
7
root -0.611667 18.6848 5.49343 1.41634 -4.99188 -1.62663
lowerback 0.872356 1.561 0.295849
upperback -2.04485 2.08586 -0.149894
thorax -2.56931 1.03347 -0.383604
lowerneck -11.1634 -0.816855 0.305284
upperneck 25.4338 -1.61536 1.45954
head 9.91268 -0.557748 0.26858
rclavicle 8.75895e-015 -3.18055e-015
rhumerus -47.0465 -1.43711 -89.3468
rradius 41.19
rwrist 14.3753
rhand -9.11335 -33.1936
rfingers 7.12502
rthumb 16.8373 -62.4836
lclavicle 8.75895e-015 -3.18055e-015
lhumerus -42.1427 -4.95122 93.1274
lradius 39.6038
lwrist 1.41109
lhand -5.0982 -20.3879
lfingers 7.12502
lthumb 20.6991 8.52821
rfemur 0 0 0
rtibia 0
rfoot 0 0
rtoes 0
lfemur -3.50046 -5.69537 -13.3229
ltibia 21.2376
lfoot -24.6491 17.6771
ltoes -54.2225
8
root -0.610724 18.6846 5.49275 1.40521 -4.98696 -1.61741
lowerback 0.884373 1.55955 0.316138
upperback -2.04338 2.08406 -0.165054
thorax -2.57329 1.03198 -0.410755
lowerneck -11.1198 -0.812161 0.324436
upperneck 25.3919 -1.61273 1.46382
head 9.88911 -0.554838 0.267276
rclavicle -7.03201e-015 4.77083e-015
rhumerus -47.0523 -1.45832 -89.3602
rradius 41.2236
rwrist 14.5048
rhand -8.91227 -33.2857
rfingers 7.12502
rthumb 17.0309 -62.5591
lclavicle -7.03201e-015 4.77083e-015
lhumerus -42.1496 -4.98636 93.1387
lradius 39.5889
lwrist 1.49609
lhand -5.60647 -21.058
lfingers 7.12502
lthumb 20.2106 7.91059
rfemur 0 0 0
rtibia 0
rfoot 0 0
rtoes 0
lfemur -3.48764 -5.74545 -13.3415
ltibia 21.2296
lfoot -24.6864 17.706
ltoes -54.2102
